name rise30.8019peak61.5557fall86.2505.mot
datacolumns 19
datarows 66
range 12.499959 12.608291
endheader
time	ground_force1_vx	ground_force1_vy	ground_force1_vz	ground_force1_px	ground_force1_py	ground_force1_pz	ground_force2_vx	ground_force2_vy	ground_force2_vz	ground_force2_px	ground_force2_py	ground_force2_pz	ground_torque1_x	ground_torque1_y	ground_torque1_z	ground_torque2_x	ground_torque2_y	ground_torque2_z	
12.499959	64.334748	518.025219	25.212197	0.286272	0.000000	0.088450	-59.610430	283.540844	-0.736522	-0.033413	0.000000	-0.077895	0.000000	3.598402	0.000000	0.000000	-11.094984	0.000000	
12.501620	64.920362	525.533331	25.857053	0.285141	0.000000	0.088499	-57.720205	273.423676	-0.203534	-0.034252	0.000000	-0.077638	0.000000	3.831395	0.000000	0.000000	-10.782950	0.000000	
12.503284	65.458124	532.992398	26.483220	0.283997	0.000000	0.088546	-55.793900	263.370055	0.299152	-0.035088	0.000000	-0.077379	0.000000	4.058536	0.000000	0.000000	-10.462778	0.000000	
12.504953	65.948262	540.399697	27.090793	0.282841	0.000000	0.088591	-53.836061	253.393151	0.771485	-0.035918	0.000000	-0.077117	0.000000	4.279910	0.000000	0.000000	-10.135220	0.000000	
12.506620	66.391108	547.752450	27.679935	0.281676	0.000000	0.088635	-51.851291	243.508397	1.213758	-0.036743	0.000000	-0.076852	0.000000	4.495628	0.000000	0.000000	-9.801072	0.000000	
12.508293	66.787094	555.047822	28.250873	0.280502	0.000000	0.088677	-49.844171	233.733468	1.626633	-0.037558	0.000000	-0.076584	0.000000	4.705820	0.000000	0.000000	-9.461161	0.000000	
12.509960	67.136748	562.282923	28.803890	0.279320	0.000000	0.088717	-47.819156	224.088040	2.011128	-0.038363	0.000000	-0.076313	0.000000	4.910636	0.000000	0.000000	-9.116323	0.000000	
12.511624	67.440687	569.454810	29.339326	0.278133	0.000000	0.088756	-45.780485	214.593279	2.368589	-0.039154	0.000000	-0.076037	0.000000	5.110243	0.000000	0.000000	-8.767390	0.000000	
12.513292	67.699610	576.560481	29.857568	0.276941	0.000000	0.088794	-43.732091	205.271036	2.700620	-0.039930	0.000000	-0.075757	0.000000	5.304822	0.000000	0.000000	-8.415162	0.000000	
12.514957	67.914297	583.596876	30.359049	0.275746	0.000000	0.088831	-41.677518	196.142759	3.008987	-0.040687	0.000000	-0.075472	0.000000	5.494563	0.000000	0.000000	-8.060387	0.000000	
12.516624	68.085595	590.560874	30.844242	0.274548	0.000000	0.088866	-39.619881	187.228149	3.295485	-0.041421	0.000000	-0.075182	0.000000	5.679670	0.000000	0.000000	-7.703738	0.000000	
12.518290	68.214422	597.449292	31.313657	0.273349	0.000000	0.088901	-37.561844	178.543616	3.561772	-0.042129	0.000000	-0.074885	0.000000	5.860352	0.000000	0.000000	-7.345790	0.000000	
12.519955	68.301753	604.258883	31.767834	0.272149	0.000000	0.088935	-35.505649	170.100623	3.809188	-0.042807	0.000000	-0.074580	0.000000	6.036827	0.000000	0.000000	-6.987010	0.000000	
12.521626	68.348621	610.986336	32.207341	0.270951	0.000000	0.088968	-33.453196	161.904061	4.038566	-0.043449	0.000000	-0.074268	0.000000	6.209314	0.000000	0.000000	-6.627748	0.000000	
12.523291	68.356103	617.628277	32.632769	0.269753	0.000000	0.089000	-31.406178	153.950787	4.250038	-0.044050	0.000000	-0.073946	0.000000	6.378035	0.000000	0.000000	-6.268238	0.000000	
12.524955	68.325323	624.181268	33.044726	0.268557	0.000000	0.089032	-29.366269	146.228506	4.442875	-0.044603	0.000000	-0.073614	0.000000	6.543214	0.000000	0.000000	-5.908620	0.000000	
12.526621	68.257440	630.641815	33.443833	0.267364	0.000000	0.089063	-27.335361	138.715187	4.615364	-0.045102	0.000000	-0.073271	0.000000	6.705073	0.000000	0.000000	-5.548962	0.000000	
12.528284	68.153643	637.006370	33.830717	0.266175	0.000000	0.089094	-25.315844	131.379165	4.764756	-0.045538	0.000000	-0.072914	0.000000	6.863829	0.000000	0.000000	-5.189309	0.000000	
12.529955	68.015146	643.271332	34.206010	0.264989	0.000000	0.089125	-23.310906	124.180098	4.887292	-0.045902	0.000000	-0.072542	0.000000	7.019696	0.000000	0.000000	-4.829742	0.000000	
12.531627	67.843184	649.433060	34.570341	0.263808	0.000000	0.089156	-21.324833	117.070866	4.978328	-0.046182	0.000000	-0.072153	0.000000	7.172879	0.000000	0.000000	-4.470442	0.000000	
12.533290	67.639003	655.487879	34.924332	0.262631	0.000000	0.089186	-19.363281	110.000448	5.032574	-0.046367	0.000000	-0.071745	0.000000	7.323577	0.000000	0.000000	-4.111776	0.000000	
12.534959	67.403857	661.432085	35.268591	0.261459	0.000000	0.089216	-17.433489	102.917718	5.044440	-0.046443	0.000000	-0.071315	0.000000	7.471975	0.000000	0.000000	-3.754375	0.000000	
12.536622	67.139002	667.261958	35.603713	0.260292	0.000000	0.089247	-15.544400	95.776009	5.008480	-0.046391	0.000000	-0.070859	0.000000	7.618250	0.000000	0.000000	-3.399213	0.000000	
12.538285	66.845694	672.973773	35.930268	0.259130	0.000000	0.089277	-13.706660	88.538162	4.919921	-0.046192	0.000000	-0.070374	0.000000	7.762564	0.000000	0.000000	-3.047675	0.000000	
12.539957	66.525177	678.563806	36.248805	0.257974	0.000000	0.089308	-11.932468	81.181679	4.775232	-0.045823	0.000000	-0.069856	0.000000	7.905066	0.000000	0.000000	-2.701599	0.000000	
12.541620	66.178687	684.028352	36.559840	0.256823	0.000000	0.089339	-10.235259	73.703499	4.572694	-0.045255	0.000000	-0.069298	0.000000	8.045887	0.000000	0.000000	-2.363296	0.000000	
12.543294	65.807441	689.363729	36.863860	0.255677	0.000000	0.089371	-8.629221	66.123838	4.312905	-0.044455	0.000000	-0.068695	0.000000	8.185145	0.000000	0.000000	-2.035519	0.000000	
12.544956	65.412638	694.566297	37.161313	0.254536	0.000000	0.089403	-7.128646	58.488497	3.999170	-0.043381	0.000000	-0.068038	0.000000	8.322940	0.000000	0.000000	-1.721397	0.000000	
12.546621	64.995451	699.632468	37.452611	0.253399	0.000000	0.089435	-5.747158	50.869118	3.637692	-0.041983	0.000000	-0.067317	0.000000	8.459352	0.000000	0.000000	-1.424314	0.000000	
12.548291	64.557030	704.558714	37.738123	0.252268	0.000000	0.089468	-4.496858	43.360918	3.237528	-0.040198	0.000000	-0.066521	0.000000	8.594446	0.000000	0.000000	-1.147738	0.000000	
12.549952	64.098492	709.341589	38.018175	0.251140	0.000000	0.089501	-3.387459	36.077711	2.810260	-0.037948	0.000000	-0.065634	0.000000	8.728267	0.000000	0.000000	-0.895012	0.000000	
12.551622	63.620924	713.977731	38.293049	0.250016	0.000000	0.089535	-2.425489	29.144309	2.369363	-0.035132	0.000000	-0.064635	0.000000	8.860842	0.000000	0.000000	-0.669119	0.000000	
12.553294	63.125379	718.463883	38.562980	0.248896	0.000000	0.089570	-1.613655	22.686845	1.929335	0.000000	0.000000	0.000000	0.000000	8.992179	0.000000	0.000000	-0.308970	0.000000	
12.554952	62.612875	722.796904	38.828156	0.247779	0.000000	0.089605	-0.950451	16.822062	1.504646	0.000000	0.000000	0.000000	0.000000	9.122269	0.000000	0.000000	-0.206448	0.000000	
12.556625	62.084393	726.973776	39.088715	0.246664	0.000000	0.089642	-0.430078	11.647006	1.108656	0.000000	0.000000	0.000000	0.000000	9.251083	0.000000	0.000000	-0.121803	0.000000	
12.558290	61.540875	730.991625	39.344750	0.245551	0.000000	0.089678	-0.042700	7.230591	0.752653	0.000000	0.000000	0.000000	0.000000	9.378575	0.000000	0.000000	-0.054701	0.000000	
12.559957	60.983227	734.847727	39.596302	0.244439	0.000000	0.089716	0.224990	3.608178	0.445119	0.000000	0.000000	0.000000	0.000000	9.504681	0.000000	0.000000	-0.004228	0.000000	
12.561620	60.412313	738.539524	39.843368	0.243328	0.000000	0.089754	0.000000	0.000000	0.000000	0.000000	0.000000	0.000000	0.000000	9.629322	0.000000	0.000000	0.000000	0.000000	
12.563291	59.828961	742.064634	40.085894	0.242217	0.000000	0.089794	0.000000	0.000000	0.000000	0.000000	0.000000	0.000000	0.000000	9.752401	0.000000	0.000000	0.000000	0.000000	
12.564954	59.233959	745.420864	40.323784	0.241105	0.000000	0.089833	0.000000	0.000000	0.000000	0.000000	0.000000	0.000000	0.000000	9.873807	0.000000	0.000000	0.000000	0.000000	
12.566626	58.628056	748.606219	40.556893	0.239993	0.000000	0.089874	0.000000	0.000000	0.000000	0.000000	0.000000	0.000000	0.000000	9.993415	0.000000	0.000000	0.000000	0.000000	
12.568293	58.011964	751.618916	40.785037	0.238878	0.000000	0.089916	0.000000	0.000000	0.000000	0.000000	0.000000	0.000000	0.000000	10.111086	0.000000	0.000000	0.000000	0.000000	
12.569955	57.386358	754.457390	41.007988	0.237762	0.000000	0.089958	0.000000	0.000000	0.000000	0.000000	0.000000	0.000000	0.000000	10.226668	0.000000	0.000000	0.000000	0.000000	
12.571619	56.751877	757.120310	41.225481	0.236642	0.000000	0.090001	0.000000	0.000000	0.000000	0.000000	0.000000	0.000000	0.000000	10.340001	0.000000	0.000000	0.000000	0.000000	
12.573290	56.109126	759.606581	41.437213	0.235518	0.000000	0.090045	0.000000	0.000000	0.000000	0.000000	0.000000	0.000000	0.000000	10.450912	0.000000	0.000000	0.000000	0.000000	
12.574952	55.458677	761.915358	41.642850	0.234390	0.000000	0.090090	0.000000	0.000000	0.000000	0.000000	0.000000	0.000000	0.000000	10.559222	0.000000	0.000000	0.000000	0.000000	
12.576618	54.801068	764.046051	41.842025	0.233256	0.000000	0.090135	0.000000	0.000000	0.000000	0.000000	0.000000	0.000000	0.000000	10.664745	0.000000	0.000000	0.000000	0.000000	
12.578288	54.136811	765.998331	42.034345	0.232118	0.000000	0.090181	0.000000	0.000000	0.000000	0.000000	0.000000	0.000000	0.000000	10.767287	0.000000	0.000000	0.000000	0.000000	
12.579953	53.466386	767.772141	42.219392	0.230973	0.000000	0.090228	0.000000	0.000000	0.000000	0.000000	0.000000	0.000000	0.000000	10.866653	0.000000	0.000000	0.000000	0.000000	
12.581620	52.790251	769.367693	42.396728	0.229821	0.000000	0.090275	0.000000	0.000000	0.000000	0.000000	0.000000	0.000000	0.000000	10.962644	0.000000	0.000000	0.000000	0.000000	
12.583286	52.108836	770.785480	42.565900	0.228662	0.000000	0.090323	0.000000	0.000000	0.000000	0.000000	0.000000	0.000000	0.000000	11.055060	0.000000	0.000000	0.000000	0.000000	
12.584951	51.422552	772.026277	42.726438	0.227495	0.000000	0.090371	0.000000	0.000000	0.000000	0.000000	0.000000	0.000000	0.000000	11.143702	0.000000	0.000000	0.000000	0.000000	
12.586623	50.731789	773.091138	42.877867	0.226320	0.000000	0.090420	0.000000	0.000000	0.000000	0.000000	0.000000	0.000000	0.000000	11.228374	0.000000	0.000000	0.000000	0.000000	
12.588293	50.036919	773.981408	43.019703	0.225136	0.000000	0.090469	0.000000	0.000000	0.000000	0.000000	0.000000	0.000000	0.000000	11.308882	0.000000	0.000000	0.000000	0.000000	
12.589954	49.338299	774.698712	43.151466	0.223944	0.000000	0.090519	0.000000	0.000000	0.000000	0.000000	0.000000	0.000000	0.000000	11.385038	0.000000	0.000000	0.000000	0.000000	
12.591626	48.636274	775.244963	43.272673	0.222742	0.000000	0.090569	0.000000	0.000000	0.000000	0.000000	0.000000	0.000000	0.000000	11.456661	0.000000	0.000000	0.000000	0.000000	
12.593291	47.931175	775.622356	43.382851	0.221530	0.000000	0.090619	0.000000	0.000000	0.000000	0.000000	0.000000	0.000000	0.000000	11.523576	0.000000	0.000000	0.000000	0.000000	
12.594956	47.223326	775.833367	43.481539	0.220309	0.000000	0.090669	0.000000	0.000000	0.000000	0.000000	0.000000	0.000000	0.000000	11.585621	0.000000	0.000000	0.000000	0.000000	
12.596623	46.513044	775.880748	43.568287	0.219078	0.000000	0.090719	0.000000	0.000000	0.000000	0.000000	0.000000	0.000000	0.000000	11.642641	0.000000	0.000000	0.000000	0.000000	
12.598287	45.800640	775.767525	43.642667	0.217837	0.000000	0.090770	0.000000	0.000000	0.000000	0.000000	0.000000	0.000000	0.000000	11.694495	0.000000	0.000000	0.000000	0.000000	
12.599952	45.086422	775.496990	43.704270	0.216586	0.000000	0.090820	0.000000	0.000000	0.000000	0.000000	0.000000	0.000000	0.000000	11.741054	0.000000	0.000000	0.000000	0.000000	
12.601625	44.370696	775.072694	43.752714	0.215325	0.000000	0.090870	0.000000	0.000000	0.000000	0.000000	0.000000	0.000000	0.000000	11.782206	0.000000	0.000000	0.000000	0.000000	
12.603292	43.653768	774.498442	43.787647	0.214054	0.000000	0.090920	0.000000	0.000000	0.000000	0.000000	0.000000	0.000000	0.000000	11.817849	0.000000	0.000000	0.000000	0.000000	
12.604959	42.935947	773.778284	43.808747	0.212773	0.000000	0.090969	0.000000	0.000000	0.000000	0.000000	0.000000	0.000000	0.000000	11.847902	0.000000	0.000000	0.000000	0.000000	
12.606624	42.217541	772.916506	43.815729	0.211483	0.000000	0.091018	0.000000	0.000000	0.000000	0.000000	0.000000	0.000000	0.000000	11.872298	0.000000	0.000000	0.000000	0.000000	
12.608291	41.498865	771.917617	43.808343	0.210183	0.000000	0.091067	0.000000	0.000000	0.000000	0.000000	0.000000	0.000000	0.000000	11.890988	0.000000	0.000000	0.000000	0.000000	
